<?xml version="1.0" encoding="utf-8"?>
<!-- Generator: Adobe Illustrator 28.3.0, SVG Export Plug-In . SVG Version: 6.00 Build 0)  -->
<svg version="1.1" id="圖層_1" xmlns="http://www.w3.org/2000/svg" xmlns:xlink="http://www.w3.org/1999/xlink" x="0px" y="0px"
	 viewBox="0 0 121 108.8" style="enable-background:new 0 0 121 108.8;" xml:space="preserve">
<style type="text/css">
	.st0{fill:#CC3C0F;}
	.st1{fill:#FFFFFF;}
</style>
<path class="st0" d="M49.9,9.9c4.5-8,16.1-8,20.7-0.1l45,77.7c4.6,7.9-1.1,17.9-10.3,17.9l-89.8,0.2c-9.2,0-14.9-9.9-10.3-17.9
	L49.9,9.9z"/>
<path class="st1" d="M56.3,72.6l8.4,0l1.8-32.4l0.4-12.2h-13l0.4,12.2L56.3,72.6z M60.6,96c4.6,0,8.1-3.7,8.1-8.4
	c0-4.9-3.5-8.4-8-8.4c-4.5,0-8,3.7-8,8.4C52.6,92.2,56,96,60.6,96z"/>
</svg>
