<svg width="380.88px" height="113.28px" viewBox="0 0 380.88 113.28" xmlns="http://www.w3.org/2000/svg">
<path fill="#ED7700" d="M67.21,104.41c0.95,0.49,2.45,0.99,3.99,0.99c1.65,0,2.53-0.69,2.53-1.75c0-0.97-0.76-1.56-2.67-2.22
c-2.65-0.94-4.39-2.41-4.39-4.74c0-2.72,2.29-4.77,6.02-4.77c1.81,0,3.11,0.35,4.06,0.8l-0.8,2.88c-0.61-0.31-1.77-0.76-3.31-0.76
c-1.56,0-2.31,0.73-2.31,1.54c0,1.01,0.87,1.46,2.95,2.27c2.81,1.04,4.11,2.5,4.11,4.77c0,2.67-2.03,4.93-6.39,4.93
c-1.82,0-3.61-0.49-4.51-0.99L67.21,104.41z"/>
<path fill="#ED7700" d="M90.63,104.38c0,1.51,0.05,2.74,0.09,3.71H87.6l-0.16-1.63h-0.07c-0.45,0.71-1.54,1.89-3.61,1.89
c-2.36,0-4.06-1.46-4.06-5.03v-6.78h3.59v6.21c0,1.68,0.54,2.69,1.82,2.69c0.99,0,1.59-0.69,1.8-1.25c0.09-0.21,0.14-0.47,0.14-0.78
v-6.87h3.59L90.63,104.38L90.63,104.38z"/>
<path fill="#ED7700" d="M93.5,100.23c0-1.44-0.05-2.64-0.1-3.68h3.12l0.17,1.61h0.07c0.47-0.76,1.63-1.86,3.57-1.86
c2.36,0,4.13,1.58,4.13,4.98v6.82h-3.59v-6.4c0-1.48-0.52-2.5-1.82-2.5c-0.99,0-1.59,0.68-1.84,1.34c-0.1,0.24-0.12,0.57-0.12,0.9
v6.66H93.5V100.23z"/>
<path fill="#ED7700" d="M111.21,93.41v3.14h2.57v2.65h-2.57v4.2c0,1.39,0.35,2.03,1.41,2.03c0.5,0,0.73-0.02,1.06-0.1l0.02,2.71
c-0.45,0.17-1.32,0.31-2.31,0.31c-1.16,0-2.12-0.4-2.71-0.99c-0.66-0.68-0.99-1.79-0.99-3.43v-4.74h-1.53v-2.65h1.53v-2.17
L111.21,93.41z"/>
<path fill="#ED7700" d="M121.05,108.34c-3.38,0-5.97-2.22-5.97-5.95c0-3.73,2.45-6.11,6.19-6.11c3.51,0,5.87,2.43,5.87,5.92
c0,4.2-3,6.13-6.06,6.13h-0.03V108.34z M121.12,105.77c1.42,0,2.29-1.39,2.29-3.47c0-1.7-0.66-3.45-2.29-3.45
c-1.7,0-2.36,1.75-2.36,3.47c0,1.96,0.83,3.44,2.33,3.44L121.12,105.77L121.12,105.77z"/>
<path fill="#ED7700" d="M129.38,100.35c0-1.7-0.02-2.81-0.09-3.8h3.07l0.14,2.15h0.1c0.59-1.7,1.98-2.4,3.12-2.4
c0.33,0,0.49,0.02,0.75,0.07v3.37c-0.31-0.05-0.59-0.1-0.99-0.1c-1.32,0-2.22,0.68-2.45,1.82c-0.05,0.23-0.07,0.5-0.07,0.8v5.83
h-3.59L129.38,100.35z"/>
<path fill="#ED7700" d="M141.39,96.54l1.72,5.67c0.19,0.68,0.43,1.54,0.57,2.15h0.08c0.16-0.61,0.35-1.49,0.52-2.15l1.41-5.67h3.85
l-2.69,7.6c-1.66,4.58-2.76,6.4-4.06,7.55c-1.23,1.09-2.55,1.49-3.47,1.58l-0.75-3.02c0.45-0.1,1.01-0.31,1.56-0.62
c0.54-0.29,1.16-0.87,1.49-1.44c0.12-0.19,0.19-0.35,0.19-0.52c0-0.12-0.03-0.31-0.14-0.59l-4.25-10.55L141.39,96.54L141.39,96.54z"
/>
<path fill="#ED7700" d="M158.29,96.54l0.95,4.74c0.21,1.18,0.45,2.46,0.64,3.78h0.07c0.21-1.3,0.57-2.62,0.82-3.76l1.23-4.77h2.83
l1.16,4.6c0.33,1.32,0.63,2.6,0.85,3.92h0.05c0.17-1.3,0.4-2.62,0.69-3.94l0.97-4.58h3.52l-3.54,11.55h-3.35l-1.09-4.04
c-0.31-1.13-0.52-2.17-0.75-3.61h-0.05c-0.21,1.44-0.45,2.53-0.73,3.59l-1.16,4.06H158l-3.38-11.55h3.67V96.54z"/>
<path fill="#ED7700" d="M176.2,103.44c0.12,1.51,1.58,2.22,3.26,2.22c1.23,0,2.22-0.16,3.19-0.49l0.47,2.43
c-1.18,0.5-2.62,0.73-4.18,0.73c-3.92,0-6.16-2.27-6.16-5.9c0-2.93,1.84-6.16,5.83-6.16c3.73,0,5.14,2.91,5.14,5.76
c0,0.62-0.07,1.16-0.12,1.44L176.2,103.44z M180.43,100.98c0-0.85-0.37-2.34-2-2.34c-1.53,0-2.15,1.39-2.24,2.34H180.43z"/>
<path fill="#ED7700" d="M185.9,91.33h3.59v16.76h-3.59V91.33z"/>
<path fill="#ED7700" d="M192.37,91.33h3.59v16.76h-3.59V91.33z"/>
<path fill="#ED7700" d="M198.84,100.23c0-1.44-0.05-2.64-0.1-3.68h3.11l0.17,1.61h0.07c0.47-0.76,1.63-1.86,3.57-1.86
c2.36,0,4.13,1.58,4.13,4.98v6.82h-3.59v-6.4c0-1.48-0.52-2.5-1.82-2.5c-0.99,0-1.58,0.68-1.84,1.34c-0.09,0.24-0.11,0.57-0.11,0.9
v6.66h-3.59L198.84,100.23L198.84,100.23z"/>
<path fill="#ED7700" d="M215.43,103.44c0.12,1.51,1.59,2.22,3.26,2.22c1.23,0,2.21-0.16,3.18-0.49l0.47,2.43
c-1.18,0.5-2.62,0.73-4.18,0.73c-3.92,0-6.16-2.27-6.16-5.9c0-2.93,1.84-6.16,5.83-6.16c3.73,0,5.15,2.91,5.15,5.76
c0,0.62-0.07,1.16-0.12,1.44L215.43,103.44z M219.66,100.98c0-0.85-0.38-2.34-2.01-2.34c-1.53,0-2.15,1.39-2.24,2.34H219.66z"/>
<path fill="#ED7700" d="M225.1,104.97c0.66,0.4,2.03,0.85,3.09,0.85c1.09,0,1.54-0.36,1.54-0.94c0-0.61-0.36-0.9-1.68-1.35
c-2.41-0.78-3.32-2.1-3.3-3.44c0-2.17,1.84-3.8,4.7-3.8c1.35,0,2.53,0.33,3.24,0.68l-0.62,2.45c-0.51-0.26-1.54-0.64-2.5-0.64
c-0.87,0-1.37,0.36-1.37,0.92c0,0.57,0.45,0.85,1.87,1.34c2.19,0.73,3.09,1.87,3.11,3.54c0,2.17-1.68,3.75-4.98,3.75
c-1.51,0-2.85-0.35-3.73-0.82L225.1,104.97z"/>
<path fill="#ED7700" d="M235.35,104.97c0.66,0.4,2.03,0.85,3.09,0.85c1.09,0,1.54-0.36,1.54-0.94c0-0.61-0.35-0.9-1.68-1.35
c-2.41-0.78-3.33-2.1-3.31-3.44c0-2.17,1.84-3.8,4.7-3.8c1.34,0,2.53,0.33,3.23,0.68l-0.62,2.45c-0.52-0.26-1.53-0.64-2.5-0.64
c-0.88,0-1.37,0.36-1.37,0.92c0,0.57,0.45,0.85,1.87,1.34c2.19,0.73,3.09,1.87,3.12,3.54c0,2.17-1.68,3.75-4.98,3.75
c-1.51,0-2.86-0.35-3.73-0.82L235.35,104.97z"/>
<path fill="#ED7700" d="M255.69,108.34c-3.38,0-5.97-2.22-5.97-5.95c0-3.73,2.45-6.11,6.18-6.11c3.52,0,5.88,2.43,5.88,5.92
c0,4.2-3,6.13-6.07,6.13h-0.02V108.34z M255.76,105.77c1.42,0,2.29-1.39,2.29-3.47c0-1.7-0.66-3.45-2.29-3.45
c-1.7,0-2.36,1.75-2.36,3.47c0,1.96,0.83,3.44,2.34,3.44L255.76,105.77L255.76,105.77z"/>
<path fill="#ED7700" d="M264,100.23c0-1.44-0.05-2.64-0.1-3.68h3.12l0.17,1.61h0.07c0.47-0.76,1.63-1.86,3.57-1.86
c2.36,0,4.13,1.58,4.13,4.98v6.82h-3.59v-6.4c0-1.48-0.52-2.5-1.81-2.5c-0.99,0-1.59,0.68-1.84,1.34c-0.1,0.24-0.11,0.57-0.11,0.9
v6.66H264V100.23z"/>
<path fill="#ED7700" d="M277.83,91.33h3.59v16.76h-3.59V91.33z"/>
<path fill="#ED7700" d="M286.07,95.04c-1.2,0-1.98-0.85-1.98-1.92c0-1.08,0.8-1.91,2.03-1.91c1.22,0,1.98,0.83,2,1.91
c0,1.07-0.78,1.92-2.03,1.92H286.07z M284.29,108.09V96.54h3.59v11.55C287.88,108.09,284.29,108.09,284.29,108.09z"/>
<path fill="#ED7700" d="M290.76,100.23c0-1.44-0.04-2.64-0.09-3.68h3.11l0.16,1.61h0.08c0.47-0.76,1.63-1.86,3.56-1.86
c2.36,0,4.13,1.58,4.13,4.98v6.82h-3.59v-6.4c0-1.48-0.52-2.5-1.82-2.5c-0.99,0-1.58,0.68-1.84,1.34c-0.1,0.24-0.12,0.57-0.12,0.9
v6.66h-3.59v-7.87H290.76z"/>
<path fill="#ED7700" d="M307.36,103.44c0.12,1.51,1.58,2.22,3.25,2.22c1.23,0,2.22-0.16,3.19-0.49l0.47,2.43
c-1.18,0.5-2.62,0.73-4.18,0.73c-3.92,0-6.16-2.27-6.16-5.9c0-2.93,1.84-6.16,5.83-6.16c3.73,0,5.14,2.91,5.14,5.76
c0,0.62-0.07,1.16-0.12,1.44L307.36,103.44z M311.58,100.98c0-0.85-0.38-2.34-2.01-2.34c-1.53,0-2.15,1.39-2.24,2.34H311.58z"/>
<path fill="#ED7700" d="M380.87,43.5c-0.23-4.23-3.17-7.24-7.33-7.48c-0.11-0.01-0.21-0.01-0.32-0.01h-7.26
c-0.39-0.58-0.86-1.1-1.41-1.58c-0.08-0.07-0.17-0.14-0.25-0.21c-1.53-1.18-3.5-1.78-5.85-1.78c-2.46,0-4.38,0.61-5.89,1.87
c-0.17,0.14-0.32,0.29-0.47,0.44c-0.37,0.4-0.71,0.82-1,1.26h-5.92c-3.11,0-5.65,0.99-7.41,2.74c-0.22-0.3-0.45-0.57-0.66-0.79
c-0.14-0.14-0.29-0.27-0.44-0.4c-0.98-0.78-2.69-1.72-5.27-1.72h-9.18c-0.32-0.4-0.67-0.78-1.07-1.12
c-0.03-0.03-0.06-0.05-0.09-0.08c-1.52-1.27-3.49-1.91-5.85-1.91c-2.42,0-4.41,0.64-5.93,1.91c-0.17,0.14-0.33,0.29-0.47,0.45
c-0.23,0.24-0.44,0.5-0.64,0.76h-9.18c-2.17,0-3.96,0.59-5.33,1.77c-0.05,0.04-0.08,0.08-0.13,0.12c-1.5-0.95-3.39-1.43-5.75-1.43
h-0.7c-0.38-0.57-0.89-1.14-1.53-1.69c-0.19-0.16-0.39-0.31-0.59-0.44c-1.46-0.94-3.17-1.43-4.94-1.43c-1.71,0-3.36,0.6-4.9,1.78
c-0.47,0.37-0.89,0.81-1.21,1.31c0,0.01-0.01,0.01-0.01,0.02c-1.4-1.03-3.2-1.62-5.25-1.62h-9.38c-2.5,0-4.59,0.83-6.06,2.28
c-1.46-1.36-3.51-2.16-5.93-2.16H231.2c-1.85,0-3.49,0.53-4.8,1.46c-0.51-0.68-1.16-1.28-1.92-1.77c-0.16-0.1-0.33-0.2-0.5-0.29
c-1.46-0.73-2.87-1.08-4.23-1.02c-2.79,0.15-5.14,1.78-6.28,4.35c-0.04,0.08-0.07,0.17-0.1,0.25c-0.04,0.1-0.08,0.21-0.12,0.31
c-0.16,0.04-0.3,0.1-0.46,0.15c-1.26-1.32-3.01-2.15-5.06-2.28c-0.11-0.01-0.23-0.01-0.34-0.01h-7.67
c-0.34-0.45-0.73-0.86-1.16-1.24c-0.08-0.07-0.17-0.15-0.26-0.22c-1.51-1.16-3.53-1.78-5.85-1.78c-2.45,0-4.38,0.61-5.89,1.87
c-0.17,0.14-0.33,0.29-0.47,0.45c-0.28,0.3-0.53,0.6-0.77,0.92h-6.49c-3.51,0-6.3,1.22-8.05,3.34c-1.42-2.12-3.81-3.44-6.74-3.5
c-0.04,0-0.08,0-0.12,0h-0.44c-0.16-0.19-0.32-0.37-0.5-0.55c-0.06-0.06-0.12-0.11-0.18-0.17c-1.46-1.33-3.37-2.06-5.36-2.06
c-2.24,0-4.2,0.8-5.57,2.26c-0.17,0.17-0.34,0.34-0.49,0.52c-0.95,0.03-1.92,0.26-2.8,0.7c-0.82-0.24-1.72-0.38-2.67-0.38h-1.84
c-0.57-0.65-1.27-1.19-2.08-1.59c-1.39-0.79-2.96-1.19-4.67-1.19c-3.27,0-5.95,2.15-6.82,5.47c-0.01,0.04-0.02,0.09-0.03,0.13
c-0.18,0.77-0.37,1.51-0.56,2.25v-0.69c0-0.05,0-0.11,0-0.16c-0.13-4.32-3.41-7.33-7.98-7.33c-0.09,0-0.17,0-0.26,0.01
c-2.35,0.11-4.13,0.9-5.38,2.05c-0.86-0.33-1.89-0.56-3.12-0.56c-0.95,0-1.78,0.14-2.5,0.35c-1.04-0.8-2.58-1.52-4.76-1.52
c-0.27,0-0.55,0.02-0.82,0.06c-0.95,0.15-1.78,0.4-2.46,0.63c-2.89,0.96-6.92,1.84-11.97,2.61c-0.14,0.02-0.27,0.05-0.4,0.08
c-1.35,0.31-2.52,0.95-3.44,1.82c-1.43-2.62-4.16-4.2-7.68-4.2H65.18c-1.15,0-2.21,0.17-3.18,0.49c-0.05-0.04-0.11-0.08-0.17-0.12
c-1.46-1-2.98-1.57-4.53-1.68c-0.57-0.04-1.14,0.01-1.7,0.15c-2.29,0.58-3.67,1.8-4.43,2.72c-0.05,0.07-0.11,0.14-0.16,0.21
c-1.02,1.38-2.26,2.84-3.77,4.43c-0.48-1.23-1.16-2.08-1.79-2.64c-0.06-0.05-0.11-0.1-0.17-0.15c-1.46-1.19-3.33-1.8-5.56-1.8H9.56
c-2.04,0-3.87,0.54-5.28,1.57c-0.15,0.11-0.29,0.23-0.43,0.35c-1.59,1.43-2.4,3.46-2.4,6.03c0,2.62,0.81,4.68,2.37,6.08
c0.25,0.23,0.54,0.47,0.89,0.7c-1.16,1.02-2.47,2.87-2.47,6.05c0,2.58,0.82,4.63,2.43,6.1c0.06,0.05,0.11,0.1,0.17,0.15
c0.02,0.02,0.04,0.04,0.07,0.05c-1,0.35-1.87,0.88-2.61,1.6C0.77,65.6,0,67.63,0,70.22c0,2.47,0.74,4.46,2.2,5.92
c0.12,0.12,0.24,0.23,0.36,0.33c1.02,0.85,2.82,1.86,5.55,1.86h32.91c2.27,0,4.29-0.77,5.78-2.18c0.49,1.47,1.31,2.48,2.11,3.15
c1.42,1.28,3.32,1.98,5.4,1.98c2.18,0,4.14-0.7,5.57-1.99c0.75-0.63,1.69-1.71,2.2-3.37c0.02,0.02,0.04,0.04,0.05,0.06
c1.2,1.77,3,2.87,5.13,3.13c0.29,0.04,0.58,0.05,0.88,0.04c0.07,0,0.15-0.01,0.22-0.01c0.77,0.6,1.68,1.07,2.7,1.39
c0.04,0.01,0.08,0.02,0.12,0.04c1.63,0.47,3.49,0.71,5.51,0.71c2.88,0,5.48-1.09,7.33-3.08c0.83-0.86,1.47-1.85,1.91-2.94
c1.29,1.05,2.91,1.62,4.71,1.62c0.55,0,1.07-0.05,1.54-0.13c0.42,0.94,0.97,1.63,1.46,2.13c0.06,0.06,0.12,0.12,0.19,0.18
c1.46,1.33,3.44,2.06,5.56,2.06c2.26,0,4.31-0.79,5.75-2.24c0.79-0.79,1.71-2.08,2.07-3.97c0.67,1.79,1.95,3.27,3.73,4.23
c0.29,0.16,0.6,0.29,0.92,0.39c2.59,0.83,5.38,1.25,8.28,1.25c2.79,0,5.22-0.96,7.04-2.78c0.64-0.64,1.17-1.35,1.59-2.12
c0.48,1.53,1.32,2.57,2.07,3.21c0.97,0.94,2.68,2.01,5.37,2.01c1.11,0,2.06-0.18,2.86-0.47c0.7,0.2,1.43,0.31,2.16,0.31
c2.28,0,4.38-0.98,5.97-2.77c1.45,0.77,2.95,1.33,4.5,1.69c2.65,0.72,6.81,1.08,12.73,1.08c1.56,0,3.55-0.14,5.29-1.03
c1.27,0.79,2.86,1.19,4.76,1.19c1.95,0,3.71-0.63,5.03-1.79c0.58,0.17,1.12,0.25,1.59,0.28c0.9,0.06,1.79-0.06,2.62-0.3
c0.5,0.46,1.08,0.86,1.72,1.19c0.22,0.12,0.45,0.22,0.68,0.3c1.74,0.62,3.6,0.94,5.54,0.94c3.11,0,5.65-0.9,7.54-2.67
c0.2-0.18,0.39-0.38,0.57-0.58c0.67,0.39,1.35,0.74,2.02,1.06c0.04,0.02,0.07,0.03,0.11,0.05c2.01,0.91,3.75,1.35,5.32,1.35
c2.45,0,4.63-1.11,5.99-2.99c0.51,0.11,1.02,0.19,1.54,0.2c0.26,0.32,0.53,0.6,0.8,0.83c1.37,1.26,3.24,1.95,5.29,1.95
c1.88,0,3.6-0.58,4.93-1.64c1.19,0.94,2.72,1.52,4.45,1.63c0.11,0.01,0.22,0.01,0.33,0.01s0.21,0,0.32-0.01
c3.13-0.18,5.22-1.7,6.35-3.62c0.08,0.13,0.17,0.25,0.26,0.38c0.07,0.1,0.14,0.19,0.22,0.28c1.2,1.46,2.87,2.39,4.84,2.68
c0.99,0.19,1.83,0.28,2.63,0.28h1.78c2.15,0,4.02-0.56,5.57-1.67c0.08-0.05,0.14-0.12,0.22-0.17c1.05,0.67,2.48,1.18,4.43,1.18
c3.3,0,7.74-0.48,13.57-1.47c1.45,1.26,3.42,1.97,5.73,1.97h11.66c2.82,0,5.16-1.12,6.65-3c0.2,0.3,0.41,0.58,0.62,0.81
c0.86,1.01,2.71,2.52,6.01,2.52c2.04,0,3.83-0.55,5.22-1.58c0.64-0.46,1.44-1.21,2.04-2.36c0.29,0.03,0.58,0.04,0.88,0.04h6.32
c0.79,1,1.83,1.83,3.09,2.41c0.25,0.12,0.51,0.21,0.78,0.29c2.44,0.7,4.93,1.1,7.4,1.2c0.07,0,0.14,0,0.21,0
c2.68,0,4.92-0.69,6.58-1.99c0.09-0.07,0.18-0.15,0.27-0.22c1.4,1.47,3.4,2.21,5.97,2.21c2.67,0,4.42-1.11,5.44-2.09
c0.12-0.11,0.23-0.22,0.35-0.34c1.38,0.92,3.11,1.44,5.09,1.44h19.59c5.17,0,8.65-3.46,8.65-8.61v-8.42c0-1.53-0.31-2.9-0.87-4.09
c0.1-0.11,0.19-0.22,0.27-0.31c0.04-0.04,0.07-0.09,0.11-0.14c0.97-1.3,1.45-2.9,1.45-4.88c0-1.8-0.42-3.35-1.26-4.62
c1.12-1.29,1.81-3,1.92-4.97C380.88,43.88,380.88,43.69,380.87,43.5z"/>
<path fill="#fff" d="M41.02,67.44c1,0,1.7,0.21,2.16,0.62c0.37,0.37,0.58,1.08,0.58,2.16c0,0.83-0.17,1.45-0.5,1.87
c-0.5,0.58-1.24,0.87-2.24,0.87H8.11c-0.91,0-1.62-0.21-2.12-0.62c-0.42-0.42-0.62-1.12-0.62-2.12c0-1.08,0.21-1.78,0.62-2.16
c0.41-0.42,1.12-0.62,2.12-0.62H41.02z M39.74,40.88c1,0,1.7,0.21,2.16,0.58c0.37,0.33,0.58,1,0.58,1.99c0,0.87-0.17,1.49-0.5,1.87
c-0.5,0.62-1.25,0.91-2.24,0.91H9.56c-0.91,0-1.62-0.21-2.12-0.66c-0.42-0.37-0.62-1.08-0.62-2.12c0-1,0.21-1.66,0.62-2.03
c0.46-0.33,1.16-0.54,2.12-0.54C9.56,40.88,39.74,40.88,39.74,40.88z M38.57,53.66c1,0,1.74,0.21,2.16,0.62
c0.41,0.33,0.62,1,0.62,1.99c0,0.83-0.17,1.45-0.5,1.87c-0.5,0.58-1.29,0.87-2.28,0.87H10.39c-0.91,0-1.62-0.21-2.12-0.62
c-0.46-0.41-0.66-1.12-0.66-2.12s0.21-1.66,0.66-2.03c0.41-0.37,1.12-0.58,2.12-0.58H38.57z"/>
<path fill="#fff" d="M60.12,48.89c0.66,0.58,1,1.12,1,1.7c0,0.5-0.17,0.95-0.46,1.29c-1,1.78-2.2,3.49-3.57,5.1v16.31
c0,0.91-0.25,1.58-0.75,1.95c-0.41,0.42-1.12,0.66-2.03,0.66c-0.83,0-1.45-0.25-1.87-0.66c-0.5-0.37-0.71-1.04-0.71-1.95V62.25
c-0.62,0.46-1.33,0.66-2.12,0.66c-0.91,0-1.66-0.33-2.32-1c-0.5-0.58-0.75-1.29-0.75-2.07c0-0.29,0.21-0.71,0.62-1.29
c0.91-0.71,1.74-1.41,2.49-2.08c2.78-2.62,5.06-5.06,6.89-7.3c0.41-0.54,1.04-0.87,1.83-1C58.95,48.23,59.53,48.47,60.12,48.89z
 M58.79,38.68c0.71,0.58,1.04,1.12,1.04,1.7s-0.17,1.04-0.5,1.45c-1.78,3.24-4.19,6.18-7.26,8.88c-0.62,0.71-1.37,1.04-2.28,1.04
s-1.66-0.33-2.32-1.04c-0.5-0.58-0.75-1.29-0.75-2.08c0-0.29,0.21-0.7,0.62-1.29c0.79-0.62,1.49-1.25,2.16-1.87
c2.37-2.37,4.32-4.57,5.85-6.64c0.37-0.46,0.91-0.75,1.58-0.91C57.5,37.97,58.12,38.22,58.79,38.68z M82.19,55.61
c0.75,0,1.33,0.17,1.66,0.46c0.29,0.25,0.46,0.75,0.46,1.49c0,0.66-0.12,1.12-0.37,1.45c-0.41,0.46-1,0.66-1.74,0.66h-0.95v1.95
h1.95c0.75,0,1.29,0.17,1.62,0.46c0.29,0.29,0.46,0.83,0.46,1.66c0,0.66-0.12,1.12-0.37,1.41c-0.41,0.46-0.95,0.66-1.7,0.66h-1.95
v5.69c0,1.24-0.37,2.24-1.12,2.99c-0.83,0.91-1.99,1.41-3.44,1.41c-1.49,0-2.86-0.17-4.03-0.5c-1.33-0.41-1.95-1.37-1.95-2.86
c-0.12,0.21-0.29,0.37-0.5,0.54c-0.5,0.42-1.25,0.66-2.28,0.71c-0.66-0.08-1.12-0.42-1.45-1c-1.33-1.58-2.61-2.99-3.82-4.23
c-0.37-0.33-0.54-0.71-0.54-1.12c0-0.62,0.25-1.16,0.83-1.62h-1.83c-0.71,0-1.24-0.12-1.58-0.46c-0.33-0.29-0.5-0.83-0.5-1.62
c0-0.83,0.17-1.37,0.5-1.66s0.83-0.46,1.58-0.46H75.9v-1.95H62.11c-0.75,0-1.29-0.17-1.62-0.5c-0.33-0.29-0.5-0.83-0.5-1.62
c0-0.75,0.17-1.25,0.5-1.49c0.33-0.29,0.87-0.46,1.62-0.46L82.19,55.61L82.19,55.61z M79.12,39.26c2.24,0,3.4,1.16,3.4,3.4v7.93
c0,2.28-1.16,3.4-3.4,3.4H65.18c-2.28,0-3.4-1.12-3.4-3.4v-7.93c0-2.24,1.12-3.4,3.4-3.4H79.12z M68.21,67.48
c1.7,1.74,2.61,2.95,2.78,3.65c0.33-0.58,0.87-0.87,1.66-0.91h0.46c0.58,0.12,1.2,0.17,1.78,0.17c0.66,0,1-0.33,1-1v-3.57H66.3
C66.88,66.2,67.5,66.74,68.21,67.48z M77.34,44.9v-1.29c0-0.5-0.29-0.79-0.79-0.79h-8.76c-0.58,0-0.83,0.29-0.83,0.79v1.29H77.34z
 M77.34,49.64v-1.33H66.96v1.33c0,0.54,0.25,0.79,0.83,0.79h8.76C77.05,50.42,77.34,50.18,77.34,49.64z"/>
<path fill="#fff" d="M107.68,38.97c0.5,0.5,0.79,1.16,0.79,1.91c0,0.83-0.29,1.45-0.79,1.78c-1.49,0.83-3.36,1.54-5.69,2.12v4.85
h4.69c0.91,0,1.62,0.21,2.03,0.58c0.37,0.33,0.58,1,0.58,1.99c0,0.83-0.17,1.41-0.5,1.78c-0.46,0.58-1.16,0.83-2.12,0.83h-4.69v3.2
c0.17-0.25,0.37-0.42,0.62-0.58c0.46-0.25,1-0.37,1.62-0.37c0.33,0,0.58,0.12,0.83,0.33c0.66,0.54,1.37,1.37,2.16,2.45
c1.78,2.74,2.7,4.73,2.7,5.98c0,0.75-0.25,1.2-0.71,1.45c-0.41,0.46-1.12,0.66-2.03,0.66c-0.83,0-1.41-0.37-1.78-1.12
c-1.08-2.32-2.16-4.48-3.2-6.39c-0.08-0.08-0.17-0.21-0.21-0.29v12.99c0,0.91-0.25,1.54-0.66,1.95c-0.41,0.42-1.08,0.66-1.95,0.66
c-0.83,0-1.49-0.25-1.95-0.66c-0.41-0.42-0.62-1.04-0.62-1.95v-10.7c-1.78,4.52-3.24,7.3-4.4,8.3c-0.37,0.54-0.95,0.79-1.78,0.79
c-0.75,0-1.29-0.25-1.7-0.83c-0.5-0.58-0.71-1.24-0.71-2.07c0-0.62,0.21-1.37,0.66-2.2c2.41-3.24,4.69-7.1,6.85-11.58h-4.11
c-0.87,0-1.54-0.21-1.99-0.62c-0.41-0.33-0.62-1-0.62-1.99s0.21-1.66,0.62-2.03c0.41-0.33,1.08-0.54,1.99-0.54h5.19v-3.82
c-1.45,0.25-2.99,0.42-4.57,0.58c-1.58-0.04-2.41-0.91-2.41-2.61c0-1.29,0.54-2.03,1.62-2.28c5.48-0.83,9.75-1.78,12.87-2.82
c0.5-0.17,1.04-0.33,1.58-0.42C106.77,38.26,107.35,38.51,107.68,38.97z M115.03,40.05c0.5,0.42,0.75,1.04,0.75,1.78v21.75
c0,0.62-0.17,1.16-0.5,1.58c-0.46,0.58-1.16,0.83-2.12,0.83c-0.83,0-1.45-0.25-1.87-0.83c-0.37-0.42-0.54-0.91-0.54-1.58V41.83
c0-0.75,0.21-1.37,0.66-1.78c0.37-0.42,0.95-0.62,1.74-0.62C113.95,39.43,114.57,39.63,115.03,40.05z M124.53,40.05v31.29
c0,1.16-0.41,2.12-1.16,2.86c-0.79,0.79-1.87,1.2-3.24,1.2c-2.37,0-4.57-0.33-6.64-1c-1-0.54-1.45-1.41-1.45-2.57
c0-1.87,0.71-2.91,2.12-3.07c0.17,0,0.41,0.04,0.66,0.12c1.16,0.41,2.28,0.62,3.36,0.66c0.75,0,1.16-0.42,1.16-1.29v-28.2
c0-1.33,0.87-2.03,2.57-2.12C123.62,37.93,124.49,38.64,124.53,40.05z"/>
<path fill="#fff" d="M154.99,40.71v-0.33c0-0.75,0.21-1.37,0.71-1.78c0.33-0.42,0.91-0.66,1.74-0.66c0.71,0,1.29,0.25,1.74,0.66
c0.41,0.41,0.66,1.04,0.66,1.78v0.33h4.07c1.91,0.04,2.91,1.08,2.91,3.07v2.28c0.46,0.08,0.79,0.25,1,0.41
c0.29,0.21,0.46,0.71,0.46,1.54c0,0.66-0.08,1.08-0.25,1.33c-0.29,0.37-0.71,0.58-1.2,0.58v3.28c0,1.62-1.04,2.41-3.07,2.41h-3.9
v1.62h5.35c0.54,0,0.95,0.12,1.2,0.37c0.25,0.21,0.42,0.66,0.42,1.41c0,0.62-0.08,1.04-0.25,1.24c-0.29,0.37-0.75,0.54-1.37,0.54
h-5.35v1.78h5.52c0.58,0,1.04,0.17,1.29,0.42c0.33,0.25,0.5,0.75,0.5,1.54c0,0.66-0.12,1.12-0.29,1.33
c-0.33,0.42-0.83,0.62-1.49,0.62h-5.52v2.57c0,0.66-0.17,1.2-0.46,1.62c1.12,0.12,2.32,0.17,3.57,0.17c0.42,0,1,0,1.74-0.08
c0.58,0,1.04-0.04,1.33-0.04c0.58,0,1.08,0.21,1.49,0.54c0.5,0.46,0.75,1,0.75,1.7c0,0.75-0.21,1.33-0.54,1.78
c-0.37,0.54-1.49,0.83-3.32,0.83c-5.56,0-9.38-0.33-11.41-0.91c-2.61-0.58-5.06-1.99-7.39-4.32c-0.79,1.66-1.54,3.03-2.28,4.07
c-0.58,0.75-1.29,1.16-2.12,1.16c-0.58,0-1.12-0.21-1.62-0.58c-0.42-0.33-0.62-0.79-0.66-1.37c0-0.46,0.21-1,0.66-1.62
c1.08-1.99,2.03-3.9,2.78-5.77c-1.04-1.62-1.95-3.44-2.74-5.52c-0.25-0.83-0.37-1.58-0.37-2.32c0-0.58,0.17-1,0.5-1.33
c0.41-0.42,0.83-0.62,1.29-0.62c0.71,0,1.25,0.33,1.62,0.95c0.54,1.2,1.08,2.28,1.62,3.24c0.54-2.2,0.83-3.86,0.83-5.02
c0-0.42-0.12-0.62-0.33-0.62h-2.91c-1.08,0-1.62-0.54-1.62-1.62c0-0.5,1-3.15,3.07-7.97c0-0.21-0.17-0.33-0.5-0.33h-1.12
c-0.75,0-1.25-0.12-1.58-0.46c-0.17-0.17-0.29-0.41-0.29-0.75c-0.33,1.58-0.75,3.11-1.2,4.57v24.86c0,0.87-0.25,1.49-0.71,1.83
c-0.37,0.42-0.95,0.62-1.74,0.62c-0.83,0-1.41-0.21-1.74-0.62c-0.5-0.33-0.71-0.95-0.71-1.83V58.85c-0.33,0.12-0.62,0.17-0.95,0.17
c-0.95,0-1.66-0.25-2.16-0.75c-0.5-0.42-0.75-1.04-0.75-1.83c0-0.5,0.12-1.12,0.46-1.87c2.2-4.07,3.98-9.01,5.35-14.86
c0.25-0.95,0.79-1.45,1.62-1.45c0.87,0,1.58,0.21,2.16,0.58c0.62,0.25,0.95,0.79,0.95,1.7c0,0.33-0.04,0.58-0.04,0.79
c0.29-0.17,0.75-0.29,1.33-0.29h4.19c1.62,0,2.45,0.66,2.45,1.95c0,1.16-1.04,3.82-3.07,7.93c0,0.33,0.08,0.5,0.33,0.5
c1.7,0,2.74,0.17,3.07,0.5c0.62,0.29,0.95,1,0.95,2.08c0,2.66-0.54,5.94-1.62,9.84c-0.17,0.58-0.33,1.08-0.5,1.58
c0.75,0.91,1.54,1.7,2.28,2.32c1.29,1.08,3.07,1.83,5.4,2.32c-0.17-0.29-0.21-0.62-0.21-1v-2.57h-4.36c-0.58,0-1-0.12-1.29-0.46
c-0.33-0.25-0.5-0.75-0.5-1.49c0-0.75,0.17-1.29,0.5-1.58c0.25-0.25,0.66-0.37,1.29-0.37H155V60.8h-4.07c-0.5,0-0.87-0.12-1.16-0.42
c-0.33-0.25-0.46-0.71-0.46-1.37c0-0.71,0.12-1.2,0.46-1.45c0.21-0.21,0.58-0.33,1.16-0.33H155v-1.62h-2.91
c-1.2,0-1.78-0.62-1.78-1.95c0-1.16,0.37-1.78,1.12-1.78H155v-1.91h-4.52c-0.58,0-1-0.17-1.29-0.5c-0.33-0.25-0.5-0.71-0.5-1.45
c0-0.75,0.17-1.29,0.5-1.58c0.25-0.25,0.66-0.37,1.29-0.37H155v-1.78h-3.57c-0.75,0-1.12-0.54-1.12-1.62c0-1.29,0.42-1.95,1.29-1.95
h3.39V40.71z M159.85,46.07h2.45v-1.45c0-0.21-0.17-0.33-0.5-0.33h-1.95V46.07z M159.85,51.88h2.12c0.21,0,0.33-0.04,0.33-0.12
v-1.78h-2.45V51.88z"/>
<path fill="#fff" d="M191.15,47.02V45.4h-10.38c-0.75,0-1.12,0.33-1.12,1v5.02c0,9.25-0.87,16.73-2.61,22.37
c-0.17,0.54-0.5,1-0.95,1.37c-0.33,0.37-0.87,0.58-1.62,0.58c-1.08,0-1.83-0.21-2.16-0.58c-0.5-0.42-0.75-1.04-0.75-1.87
c0-0.37,0.08-0.83,0.21-1.37c1.16-3.74,1.87-7.55,2.2-11.46c0.08-3.32,0.17-6.31,0.17-9.05V44.9c0-2.66,1.54-4.03,4.69-4.03h10.21
v-0.33c0-0.83,0.29-1.58,0.95-2.28c0.5-0.42,1.29-0.62,2.45-0.62s2.03,0.25,2.57,0.66c0.66,0.58,1,1.33,1,2.24v0.33h11.37
c1.33,0.08,2.03,0.83,2.12,2.24c-0.08,1.45-0.79,2.2-2.12,2.28h-10.71v1.62h6.47c2.57,0,3.9,1.16,3.9,3.4v1.45h0.66
c0.87,0,1.45,0.21,1.74,0.54c0.33,0.37,0.5,1,0.5,1.91c0,0.83-0.12,1.41-0.37,1.74c-0.37,0.5-1,0.71-1.87,0.71h-0.66v1.91
c0,0.91-0.17,1.58-0.46,1.99c0.46,0.08,0.87,0.29,1.2,0.54c0.66,0.46,1.04,1.12,1.04,2.03c0,0.5-0.17,0.95-0.5,1.45
c-1.08,1.45-2.57,2.82-4.44,4.07c1.49,0.83,3.07,1.58,4.77,2.24c0.66,0.37,1,0.95,1,1.78c0,0.71-0.25,1.33-0.71,1.87
c-0.33,0.58-0.91,0.91-1.74,0.91c-0.79,0-1.83-0.29-3.11-0.87c-1.83-0.87-3.74-2.08-5.69-3.65c-0.66-0.54-1.24-1.08-1.74-1.66v1.95
c0,1.87-0.37,3.11-1.12,3.78c-0.87,0.83-2.16,1.25-3.9,1.25c-1.33,0-2.57-0.21-3.74-0.62c-0.87-0.46-1.29-1.16-1.29-2.12
c0-0.5,0.17-1.16,0.5-1.91c0.29-0.54,0.79-0.83,1.45-0.87c0.08,0,0.17,0.04,0.33,0.08c0.37,0.17,0.71,0.25,0.95,0.25
c0.83,0,1.29-0.29,1.29-0.95v-8.26h-5.19c0.08,0.08,0.12,0.17,0.17,0.17c1.16,1.49,1.78,2.57,1.78,3.24c0,0.25-0.04,0.46-0.08,0.62
c0.29,0.17,0.62,0.37,0.95,0.62c0.5,0.46,0.75,0.95,0.75,1.49c0,0.5-0.17,0.95-0.5,1.29c-3.15,2.74-5.27,4.23-6.31,4.56
c-0.33,0.17-0.75,0.29-1.29,0.29c-0.62-0.04-1.2-0.37-1.74-1c-0.46-0.5-0.71-1.04-0.71-1.58c0-0.46,0.17-0.87,0.5-1.29
c1-0.75,2.49-1.83,4.48-3.24c-0.33-0.21-0.58-0.54-0.75-1c-0.75-1.08-1.41-2.03-2.08-2.95c-0.25-0.17-0.37-0.37-0.37-0.62
c0-0.66,0.29-1.16,0.87-1.54c-0.12-0.29-0.21-0.62-0.21-1.04c0.04-1.12,0.58-1.7,1.62-1.78h8.09v-1.95h-9.21
c-0.62,0-1.08-0.12-1.37-0.46c-0.29-0.29-0.42-0.79-0.42-1.49c0-0.71,0.17-1.25,0.5-1.62c0.29-0.21,0.71-0.33,1.29-0.33h9.21v-1.62
h-7.76c-1.04-0.04-1.58-0.71-1.62-1.95c0.04-1.12,0.58-1.7,1.62-1.78h7.8V47.02z M196.67,52.38h4.86v-0.79
c0-0.46-0.33-0.75-0.95-0.83h-3.9v1.62H196.67z M196.67,58.23h3.9c0.62,0,0.95-0.25,0.95-0.83v-1.12h-4.86v1.95H196.67z
 M199.78,66.03c1.49-1.16,2.91-2.41,4.23-3.82c0.08-0.08,0.21-0.21,0.29-0.29c-0.25,0.04-0.46,0.04-0.66,0.04h-6.97v1.16
C197.79,64.29,198.82,65.28,199.78,66.03z"/>
<path fill="#fff" d="M217.25,61.88c0.41,0.33,0.62,0.75,0.66,1.2c0,0.91-0.17,2.03-0.41,3.36c-0.42,2.41-0.83,4.23-1.2,5.4
c-0.21,0.62-0.66,0.95-1.33,0.95c-0.58,0-1.12-0.17-1.58-0.42c-0.46-0.29-0.66-0.71-0.66-1.37c0-0.42,0.04-0.95,0.21-1.54
c0.46-1.41,0.91-3.61,1.41-6.56c0.17-0.95,0.71-1.45,1.62-1.45C216.42,61.46,216.84,61.63,217.25,61.88z M221.57,38.56
c0.58,0.37,0.87,0.87,0.87,1.49c0,0.42-0.17,0.87-0.41,1.29c-0.75,1.49-1.7,2.95-2.86,4.36c0.58,0.62,1.16,1.25,1.7,1.83
c0.83-1.49,1.49-2.86,1.91-4.07c0.41-1.08,1-1.62,1.78-1.62c0.71,0,1.29,0.12,1.78,0.37c0.62,0.33,0.95,0.83,0.95,1.58
c0,0.33-0.12,0.75-0.29,1.2c-1.04,2.74-2.99,5.98-5.85,9.71c1-0.08,2.03-0.17,3.03-0.29c-0.08-0.58-0.21-1.08-0.29-1.58
c-0.12-0.29-0.17-0.5-0.17-0.62c0.04-0.87,0.54-1.37,1.49-1.45c0.87,0,1.45,0.37,1.78,1.12c0.75,2.16,1.12,4.65,1.12,7.47
c-0.08,0.95-0.71,1.45-1.78,1.45c-0.91,0-1.37-0.46-1.45-1.29c-0.08-0.58-0.12-1.12-0.17-1.62c-0.58,0.17-1.12,0.33-1.62,0.42v14.98
c0,0.79-0.21,1.37-0.58,1.7c-0.37,0.37-0.95,0.58-1.7,0.58s-1.33-0.21-1.7-0.58c-0.42-0.33-0.58-0.91-0.58-1.7V59.1
c-0.91,0.12-1.83,0.21-2.74,0.25c-0.83,0-1.45-0.17-1.83-0.54c-0.42-0.33-0.62-0.91-0.62-1.74c0.04-0.62,0.25-1.12,0.58-1.54
c0.25-0.33,0.71-0.5,1.37-0.54c0.25,0,0.5,0,0.75-0.04c0.95-1.33,1.83-2.57,2.57-3.74c-0.08-0.04-0.17-0.08-0.17-0.17
c-1.33-1.45-2.78-2.9-4.36-4.32c-0.21-0.17-0.33-0.33-0.42-0.5c-0.41-0.25-0.62-0.71-0.62-1.33c0-0.54,0.17-1.04,0.58-1.45
c0.25-0.42,0.71-0.62,1.33-0.62c0.46,0,0.91,0.17,1.41,0.41c0.79-1.24,1.45-2.57,1.99-3.98c0.33-0.75,0.91-1.12,1.66-1.16
C220.45,38.1,220.99,38.26,221.57,38.56z M226.84,61.96c0.5,1.58,1.04,3.74,1.58,6.39c0,0.12,0.04,0.21,0.04,0.25V42.83
c0-2.08,0.91-3.11,2.74-3.11h16.06c1.91,0,2.91,0.83,2.91,2.45v30.46c0,1.08-0.29,1.83-0.79,2.28c-0.58,0.42-1.37,0.66-2.45,0.66
h-1.78c-0.54,0-1.12-0.08-1.74-0.21c-0.66-0.08-1.2-0.33-1.58-0.79c-0.41-0.58-0.58-1.2-0.58-1.78c0-0.33,0.04-0.71,0.17-1.04
c0.25-0.42,0.66-0.71,1.16-0.96c0.46-0.12,0.91-0.21,1.41-0.25h1.33c0.33,0,0.5-0.08,0.5-0.33v-25.6c0-0.08-0.12-0.17-0.33-0.17
h-12.33c-0.25,0-0.33,0.12-0.33,0.33v29.01c-0.08,1.08-0.87,1.7-2.28,1.78c-1.33-0.08-2.03-0.71-2.08-1.78V70.5
c-0.12,0.21-0.25,0.37-0.41,0.46c-0.46,0.33-0.91,0.54-1.37,0.54c-0.79,0-1.29-0.29-1.45-0.95c-0.5-2.41-0.95-4.61-1.45-6.64
c-0.17-0.37-0.21-0.71-0.21-1c0-0.46,0.21-0.87,0.66-1.2c0.37-0.25,0.79-0.42,1.29-0.42C226.14,61.3,226.59,61.55,226.84,61.96z
 M236.88,46.23c0.33,0.25,0.71,0.75,1.16,1.41c0.71,1.16,1.16,2.03,1.33,2.61c0.04-0.08,0.12-0.21,0.21-0.37
c0.58-0.91,1.08-2.03,1.49-3.32c0.17-0.75,0.66-1.16,1.49-1.16c0.5,0,1,0.17,1.45,0.46c0.41,0.25,0.62,0.66,0.62,1.33
c-0.08,0.33-0.21,0.66-0.37,1.08c-0.37,0.79-0.75,1.45-1.08,1.99h0.17c0.62,0,1.08,0.17,1.41,0.42s0.54,0.75,0.54,1.54
c0,0.75-0.12,1.2-0.29,1.45c-0.37,0.46-0.91,0.66-1.66,0.66h-1.95v3.24h2.12c0.62,0,1.08,0.17,1.41,0.42s0.54,0.75,0.54,1.54
c0,0.71-0.12,1.2-0.33,1.45c-0.33,0.46-0.87,0.66-1.62,0.66H239v3.24c0,0.33,0.12,0.5,0.46,0.5h3.4c1.08,0,1.62,0.71,1.62,2.08
c0,1.41-0.54,2.12-1.62,2.12h-5.48c-1.74,0-2.61-0.83-2.61-2.57v-5.4c-0.42-0.08-0.71-0.21-0.91-0.46
c-0.37-0.29-0.54-0.83-0.54-1.62c0-0.75,0.17-1.29,0.54-1.58c0.25-0.25,0.75-0.37,1.41-0.37h1.78v-3.24h-1.78
c-0.62,0-1.08-0.17-1.41-0.5c-0.37-0.25-0.54-0.79-0.54-1.62c0-0.75,0.17-1.29,0.54-1.58c0.25-0.25,0.75-0.37,1.41-0.37h0.33
c-0.54-0.71-1.04-1.33-1.45-1.91c-0.25-0.25-0.33-0.5-0.33-0.83c0-0.58,0.25-1.04,0.75-1.41c0.37-0.25,0.83-0.37,1.33-0.37
C236.3,45.74,236.64,45.9,236.88,46.23z"/>
<path fill="#fff" d="M268.64,39.59c2.08,0,3.11,1.04,3.11,3.07v4.07c2.78-2.78,4.98-5.44,6.64-7.97c0.54-0.42,1.08-0.66,1.62-0.66
c0.75,0,1.45,0.21,2.03,0.58c0.58,0.5,0.87,1,0.87,1.54c0,0.5-0.17,1-0.5,1.45h5.35c1.58,0,2.61,0.29,3.2,0.83
c0.79,0.79,1.2,1.83,1.2,3.07c0,1.45-0.87,3.15-2.61,5.1c-0.91,1-1.78,1.87-2.61,2.66c1.58,1.08,3.28,2.12,5.06,3.11
c0.62,0.42,0.95,1.08,0.95,1.95c0,0.58-0.25,1.16-0.71,1.74c-0.62,0.66-1.25,1-1.83,1c0.5,0.58,0.75,1.33,0.75,2.28v8.92
c0,2.03-1.04,3.07-3.07,3.07h-11.66c-2.07,0-3.07-1.04-3.07-3.07v-8.92c0-0.83,0.17-1.49,0.5-1.99c-0.75,0-1.33-0.29-1.74-0.79
c-0.5-0.54-0.71-1.08-0.71-1.62c0-0.75,0.29-1.37,0.95-1.95c2.28-1.24,4.36-2.49,6.18-3.78c-1.12-1-2.2-2.08-3.2-3.24
c-0.37,0.33-0.71,0.62-1.04,0.87c-0.41,0.33-0.91,0.5-1.45,0.5c-0.42,0-0.79-0.08-1.12-0.25c-0.04,1.99-1.08,2.99-3.11,2.99h-1.29
v4.86h1.95c0.87,0,1.45,0.17,1.78,0.5s0.5,0.95,0.5,1.78c0,0.83-0.17,1.41-0.41,1.74c-0.37,0.5-1,0.71-1.87,0.71h-1.95v5.1
c1-0.12,1.99-0.25,2.91-0.42c0.58,0,1.16,0.25,1.66,0.71c0.29,0.46,0.46,1.04,0.46,1.7c0,0.79-0.21,1.37-0.58,1.83
c-0.33,0.37-0.91,0.62-1.66,0.79c-5.56,0.96-9.92,1.45-12.99,1.45c-0.91,0-1.54-0.21-1.87-0.62c-0.37-0.37-0.58-0.96-0.58-1.78
c0-0.87,0.21-1.54,0.66-1.95c0.21-0.21,0.54-0.37,1-0.46V58.56c0-0.5,0.17-1,0.58-1.41c0.29-0.25,0.79-0.37,1.49-0.37
c0.75,0,1.29,0.12,1.62,0.37c0.41,0.37,0.66,0.83,0.66,1.41v11.08c0.66-0.04,1.29-0.12,1.95-0.21V54.16h-3.4
c-2.08,0-3.07-1-3.07-3.07v-8.43c0-2.03,1-3.07,3.07-3.07H268.64z M266.85,48.97v-4.19c0-0.42-0.21-0.66-0.62-0.66h-4.57
c-0.42,0-0.62,0.25-0.62,0.66v4.19c0,0.46,0.21,0.66,0.62,0.66h4.57C266.64,49.64,266.85,49.43,266.85,48.97z M288.06,60.34
c-1.87-1.04-3.61-2.2-5.27-3.49c-1.12,0.83-2.24,1.58-3.36,2.24c-0.91,0.5-1.7,0.91-2.37,1.25H288.06z M282.5,50.26
c0.33-0.33,0.71-0.62,1.04-0.95c1.41-1.25,2.16-2.16,2.16-2.74c0-0.21-0.17-0.33-0.5-0.33h-6.06c-0.25,0.25-0.46,0.5-0.66,0.75
C279.72,48.14,281.09,49.22,282.5,50.26z M285.82,70.22v-4.69c0-0.42-0.21-0.66-0.62-0.66h-5.85c-0.41,0-0.62,0.25-0.62,0.66v4.69
c0,0.42,0.21,0.62,0.62,0.62h5.85C285.61,70.84,285.82,70.64,285.82,70.22z"/>
<path fill="#fff" d="M317.61,38.76c0.66,0.58,1,1.37,1,2.28v0.17h12.78c0.87,0,1.49,0.21,1.91,0.54c0.33,0.33,0.54,0.95,0.54,1.87
c0,0.75-0.17,1.33-0.46,1.66c-0.46,0.54-1.12,0.79-1.99,0.79h-5.27l-1.2,3.4h2.74c2.7,0,4.07,1.37,4.07,4.03v18.18
c0,1.58-0.37,2.66-1.04,3.15c-0.75,0.58-1.87,0.91-3.36,0.91c-2.08-0.08-4.11-0.42-6.14-1c-1.08-0.5-1.62-1.33-1.62-2.41
c0-0.21,0-0.37,0.04-0.5h-10.08c-1.74,0-2.61-0.87-2.61-2.62V63.4c0-0.71,0.12-1.24,0.41-1.62c-0.33,0.12-0.66,0.17-1.04,0.17
c-0.87,0-1.45-0.21-1.78-0.62c-0.17-0.12-0.25-0.25-0.33-0.41v12.37c0,0.91-0.25,1.58-0.75,1.91c-0.42,0.33-1.12,0.54-2.03,0.54
c-0.95,0-1.62-0.25-1.95-0.66c-0.42-0.46-0.62-1.04-0.62-1.78V53.5c0-2.66,1.16-4.03,3.57-4.03h3.94l-1.33-3.4h-6.02
c-0.83,0-1.45-0.17-1.87-0.58c-0.42-0.33-0.58-0.96-0.58-1.87s0.17-1.58,0.58-1.91c0.37-0.33,1-0.5,1.87-0.5h12.78v-0.17
c0-0.83,0.29-1.58,0.95-2.28c0.5-0.42,1.33-0.66,2.49-0.66C316.32,38.1,317.11,38.35,317.61,38.76z M304.5,58.39
c1.87-0.87,3.28-1.87,4.19-2.95c0.41-0.5,0.75-1.16,0.91-1.95h-4.48c-0.66,0-0.95,0.29-0.95,0.83v4.48
C304.25,58.64,304.37,58.52,304.5,58.39z M309.52,60.8h11.16c1.74,0,2.61,0.87,2.61,2.61v5.81c0,0.25-0.04,0.46-0.04,0.62
c0.71,0.25,1.49,0.37,2.32,0.37c0.5,0,0.79-0.46,0.79-1.45v-8.59h-5.52c-2.91,0-4.36-0.91-4.36-2.78v-3.9H314
c-0.25,1.37-0.75,2.66-1.45,3.86c-0.91,1.41-2.08,2.57-3.57,3.49C309.15,60.84,309.35,60.8,309.52,60.8z M319.27,49.47l1.16-3.4
h-9.75l1.33,3.4H319.27z M318.44,67.61v-2.57c0-0.33-0.17-0.5-0.5-0.5h-5.69c-0.33,0-0.5,0.17-0.5,0.5v2.57c0,0.33,0.17,0.5,0.5,0.5
h5.69C318.28,68.11,318.44,67.94,318.44,67.61z M321.51,55.61c0,0.58,0.37,0.83,1.12,0.83h3.74v-2.28c0-0.41-0.25-0.66-0.66-0.66
h-4.19L321.51,55.61L321.51,55.61z"/>
<path fill="#fff" d="M361.03,38.47c0.66,0.58,1,1.33,1,2.24v0.66h11.21c1.41,0.08,2.2,0.87,2.28,2.41
c-0.08,1.54-0.87,2.37-2.28,2.45h-25.77c-0.87,0-1.29,0.33-1.29,0.95v4.23c0,9.21-1.12,16.6-3.28,22.2c-0.21,0.58-0.54,1.08-1,1.49
c-0.41,0.42-1,0.62-1.74,0.62c-1.08,0-1.83-0.21-2.16-0.62c-0.5-0.46-0.75-1.12-0.75-1.99c0.04-0.37,0.12-0.83,0.25-1.37
c1.45-3.74,2.37-7.51,2.78-11.37c0.12-3.24,0.21-6.23,0.21-8.96v-5.69c0-2.9,1.54-4.36,4.69-4.36h9.88V40.7
c0-0.83,0.29-1.58,0.95-2.28c0.5-0.42,1.29-0.62,2.45-0.62C359.61,37.81,360.49,38.06,361.03,38.47z M361.19,48.27
c0.54,0.46,0.83,1.08,0.83,1.83v1.33h10.71c0.83,0,1.37,0.17,1.66,0.46c0.29,0.37,0.46,0.95,0.46,1.78c0,0.79-0.12,1.33-0.37,1.66
c-0.33,0.41-0.91,0.62-1.74,0.62h-10.71v3.9h8.59c2.16,0,3.28,1.08,3.28,3.24v8.42c0,2.16-1.12,3.24-3.28,3.24h-19.59
c-2.16,0-3.24-1.08-3.24-3.24v-8.42c0-2.16,1.08-3.24,3.24-3.24h5.19V50.1c0-0.66,0.25-1.29,0.83-1.87
c0.42-0.33,1.08-0.54,2.08-0.54C360.07,47.69,360.78,47.89,361.19,48.27z M368.04,69.22v-3.86c0-0.41-0.25-0.66-0.66-0.66h-13.11
c-0.46,0-0.66,0.25-0.66,0.66v3.86c0,0.46,0.21,0.66,0.66,0.66h13.11C367.79,69.89,368.04,69.68,368.04,69.22z"/>
<path fill="#5BC2DC" d="M151.33,15.32v0.47c0,1.57,0.08,4.15,0.32,5.48H145c0.24-1.33,0.32-3.99,0.32-5.48v-0.47
c0-0.86-0.24-1.72-0.95-3.13c-1.48-2.97-4.76-8.68-7.59-11.26c1.1-0.16,3.13-0.23,4.38-0.23c2.58,0,3.36,0.86,3.99,1.88
c0.55,0.86,2.73,5.16,3.44,6.96c0.86-2.03,2.58-5.63,3.36-6.88c0.62-0.94,1.49-1.95,3.67-1.95c1.01,0,2.66,0.08,3.91,0.23
c-2.03,1.8-5.86,8.13-7.43,11.03C151.41,13.37,151.33,14.08,151.33,15.32z"/>
<path fill="#5BC2DC" d="M134.6,22.45c-2.5,0-3.05-0.94-4.62-3.21c-0.86-1.25-3.59-5.86-4.07-6.8c-0.23-0.47-0.31-0.86,0.16-1.09
c2.03-1.18,2.58-2.42,2.58-3.83c0-1.64-0.7-3.05-3.05-3.05c-0.7,0-1.72,0.08-2.19,0.23v7.43c0,2.58,0.07,7.04,0.31,9.15h-6.41
c0.23-2.04,0.31-5.48,0.31-8.76v-2.9c0-3.28-0.08-6.88-0.47-8.76c3.05,0,7.51-0.16,9.47-0.16c3.44,0,8.06,0.7,8.06,5.87
c0,2.11-1.01,3.83-2.74,4.93c-0.31,0.23-0.31,0.39,0,0.86c2.19,3.28,4.85,6.96,7.27,9.54C138.35,22.13,136.08,22.45,134.6,22.45z"/>
<path fill="#5BC2DC" d="M112.46,10.87c0,6.81-3.91,11.03-10.95,11.03c-7.04,0-10.64-3.83-10.64-10.79c0-6.89,3.84-10.87,10.87-10.87
C108.79,0.23,112.46,3.99,112.46,10.87z M96.9,10.95c0,4.69,1.64,6.8,4.85,6.8c3.13,0,4.7-2.11,4.7-6.8s-1.57-6.88-4.7-6.88
C98.54,4.07,96.9,6.26,96.9,10.95z"/>
<path fill="#5BC2DC" d="M86.73,0.86c1.1,0,2.82-0.08,3.68-0.24c-0.16,0.63-0.63,2.27-0.94,2.98c-0.55,1.17-1.25,1.56-3.99,1.56h-2.34
v6.96c0,2.58,0.08,7.04,0.31,9.15H76.8c0.24-2.11,0.32-6.57,0.32-9.15V5.16h-2.03c-1.8,0-3.36,0.24-4.15,0.71V3.13
c0-1.56,0.31-2.27,2.66-2.27C73.6,0.86,86.73,0.86,86.73,0.86z"/>
<path fill="#5BC2DC" d="M54.82,21.27h-6.57c0.23-2.11,0.31-5.48,0.31-8.76v-2.9c0-3.28-0.08-6.88-0.47-8.76h3.75
c1.41,0,2.11,0.47,2.34,1.41c1.8-1.33,3.76-1.88,5.71-1.88c7.04,0,7.9,4.22,7.9,7.35v5.71c0,3.21,0.15,6.1,0.39,7.82h-3.91
c-1.79,0-2.65-1.1-2.65-2.89v-8.29c0-3.28-0.31-5.78-4.38-5.78c-0.93,0-1.88,0.15-2.66,0.47v7.35
C54.58,14.7,54.58,19.16,54.82,21.27z"/>
<path fill="#5BC2DC" d="M35.42,0.86H42c-0.23,2.11-0.31,5.47-0.31,8.76v2.9c0,3.28,0.15,6.88,0.47,8.76h-3.75
c-1.41,0-2.11-0.47-2.34-1.41c-1.8,1.33-3.75,1.87-5.71,1.87c-7.04,0-7.9-4.22-7.9-7.35V8.68c0-3.21-0.16-6.1-0.39-7.82h3.91
c1.8,0,2.66,1.09,2.66,2.89v8.29c0,3.28,0.31,5.78,4.38,5.78c0.94,0,1.88-0.15,2.66-0.46V10C35.66,7.43,35.58,2.97,35.42,0.86z"/>
<path fill="#5BC2DC" d="M16.81,5.71c-1.17-1.1-3.29-1.72-5.47-1.72c-1.56,0-3.44,0.23-3.44,2.03c0,1.33,1.57,1.95,3.91,2.81
c2.74,1.02,5.95,2.35,5.95,6.18c0,6.1-6.49,6.88-9.54,6.88c-1.72,0-3.6-0.16-5.01-0.55c-1.4-0.39-1.71-1.01-1.71-2.9v-2.27
c1.56,1.09,4.06,1.64,6.1,1.64c2.5,0,3.76-0.7,3.76-2.27c0-1.48-1.33-2.04-4.85-3.37c-2.42-0.94-5-2.19-5-5.71
C1.48,1.33,7.35,0,10.86,0c2.11,0,3.84,0.39,4.93,0.86c0.94,0.47,1.01,1.02,1.01,2.27v2.58H16.81z"/>
</svg>
